<svg id="Layer_1" data-name="Layer 1" xmlns="http://www.w3.org/2000/svg" viewBox="0 0 511.37 451.65"><defs><style>.cls-1{fill:#005baa;}.cls-2{fill:#f7941d;}.cls-3{fill:#b1d34a;}.cls-4{fill:#00bfdf;}.cls-5{fill:#8c2c86;}.cls-6{fill:#d7172f;}.cls-7{fill:#d958a0;}</style></defs><title>IT-Non-Stop</title><polygon class="cls-1" points="378.05 201.52 310.98 134.45 243.92 201.52 378.05 201.52"/><polygon class="cls-2" points="243.92 201.52 310.99 268.58 378.05 201.52 243.92 201.52"/><polygon class="cls-3" points="263.57 181.87 310.98 134.46 216.15 134.45 263.57 181.87"/><polygon class="cls-4" points="168.72 134.45 216.14 134.45 263.56 181.88 216.15 181.87 168.72 134.45"/><polygon class="cls-5" points="263.57 268.58 310.99 268.58 263.57 221.16 263.57 268.58"/><polygon class="cls-6" points="216.15 268.58 216.15 221.16 168.72 268.58 216.15 268.58"/><rect class="cls-7" x="216.14" y="221.16" width="47.42" height="47.42"/><path d="M276.41,644.77l10.06-23.23h11.42l9.4,23.23h-9.76l-.76-2.28h-9.88l-.83,2.28Zm12.59-8h5.77l-2.8-8.18Zm-28.81,8V627.43h-8.39v-5.89h25.82v5.9H269.2v17.33h-9Zm-38.65,0,10.06-23.23H243l9.39,23.23h-9.74l-.78-2.28H232l-.83,2.28Zm12.6-8h5.76l-2.79-8.18Zm-43.57-15.25h14.88c4.81,0,8.49,1,11,3s3.79,4.87,3.79,8.67-1.27,6.67-3.78,8.65-6.18,3-11,3H190.56Zm9,5.76V638.6H204c2.33,0,4-.45,5-1.33s1.52-2.33,1.52-4.34-.51-3.44-1.53-4.32-2.69-1.33-5-1.33h-4.47Z" transform="translate(-41.83 -196)"/><path d="M358.19,627.43h-5v4.14h5.24a6.27,6.27,0,0,0,2.9-.49,1.75,1.75,0,0,0,.84-1.63,1.67,1.67,0,0,0-.79-1.58,7.72,7.72,0,0,0-3.18-.44" transform="translate(-41.83 -196)"/><polygon points="282.62 440.76 288.38 440.76 285.58 432.58 282.62 440.76"/><path d="M399,627.43h-8.43v17.33h-9V627.43h-8.39v-5.89H399Zm-26.55,17.33h-10a6.45,6.45,0,0,1-.51-2.86,17.39,17.39,0,0,0-.11-1.92,2.36,2.36,0,0,0-.85-1.79,4.17,4.17,0,0,0-2.39-.51h-5.37v7.08h-9.13V621.54h17.68a32.49,32.49,0,0,1,4.86.29,8,8,0,0,1,2.84.91,5.14,5.14,0,0,1,2,2.07,6.28,6.28,0,0,1,.69,3,6.46,6.46,0,0,1-1,3.61,5.73,5.73,0,0,1-2.81,2.26,4.54,4.54,0,0,1,2.16,1.59,7.18,7.18,0,0,1,.72,3.35c0,.18,0,.43,0,.73q.22,4.57,1.23,5.06Zm-39.44,0-.76-2.28h-9.87l-.83,2.28h-9.64l10.06-23.23h11.41l9.39,23.23Zm-23.36,2.88h91.51V619H309.61Z" transform="translate(-41.83 -196)"/><rect y="317" width="17.57" height="67.72"/><polygon points="57.36 331.92 57.36 384.71 39.8 384.71 39.8 331.92 25.38 331.92 25.38 317 71.78 317 71.78 331.92 57.36 331.92"/><polygon points="103.25 384.71 103.25 317 120.81 317 153.2 358.42 153.2 317 170.76 317 170.76 384.71 153.2 384.71 120.81 343.29 120.81 384.71 103.25 384.71"/><path d="M243.46,550.56a10.36,10.36,0,0,0,7.31,17.67,10.32,10.32,0,0,0,7.21-3,10,10,0,0,0,3.15-7.21,11,11,0,0,0-3.15-7.41,10.42,10.42,0,0,0-14.52,0M271,574.73c-6,5.89-13,7.51-20.3,7.51-6.6,0-13.91-1.32-20.2-7.51a23.41,23.41,0,0,1,0-33.4c3.76-3.66,10.36-7.51,20.2-7.51,10.05,0,16.55,4,20.3,7.51a23.41,23.41,0,0,1,0,33.4" transform="translate(-41.83 -196)"/><path d="M287.31,535.33h16.24V541c4.47-5.89,10.46-6.7,14.42-6.7,4.67,0,9.65,1.12,13.4,4.88s4.26,7.71,4.26,12.69v28.83H319.4V557.77c0-2.64.1-6.6-2-8.83a6.8,6.8,0,0,0-5.18-1.93,8.89,8.89,0,0,0-6,2.13c-1.63,1.52-2.64,4.47-2.64,7.21v24.37H287.31Z" transform="translate(-41.83 -196)"/><path d="M352.69,560.41c3.76,3.55,9.44,6.9,15.53,6.9,3.55,0,5.68-1.12,6.8-2.33a6.07,6.07,0,0,0,1.73-4.26,5.28,5.28,0,0,0-1.93-4.06c-1.73-1.52-4.36-2.23-8.73-3.55l-4.57-1.42c-2.84-.91-7-2.44-9.75-5.48-3.45-3.76-3.86-8.53-3.86-12,0-8.32,3.25-13.4,6.2-16.35,3.45-3.45,9.14-6.4,17.36-6.4A47.56,47.56,0,0,1,392.39,517l-7,13.71c-5.28-4.16-9.24-4.57-11.57-4.57a8.45,8.45,0,0,0-5.79,2,5,5,0,0,0-1.73,3.66,4.53,4.53,0,0,0,.91,3c.51.61,1.73,1.83,5.89,3l5.38,1.63c4.26,1.32,8.73,2.84,12.28,6.7,3.45,3.65,4.36,7.41,4.36,12.08,0,6.19-1.52,12.18-6.4,17.05-5.79,5.79-12.79,6.9-20,6.9a36.19,36.19,0,0,1-13.3-2.23,47.31,47.31,0,0,1-10.25-5.38Z" transform="translate(-41.83 -196)"/><polygon points="380.81 352.63 380.81 384.71 364.57 384.71 364.57 352.63 359.39 352.63 359.39 339.33 364.57 339.33 364.57 324.41 380.81 324.41 380.81 339.33 390.05 339.33 390.05 352.63 380.81 352.63"/><path d="M456.15,550.56a10.36,10.36,0,0,0,7.31,17.67,10.32,10.32,0,0,0,7.21-3,10,10,0,0,0,3.15-7.21,11,11,0,0,0-3.15-7.41,10.42,10.42,0,0,0-14.52,0m27.51,24.16c-6,5.89-13,7.51-20.3,7.51-6.6,0-13.91-1.32-20.2-7.51a23.41,23.41,0,0,1,0-33.4c3.76-3.66,10.36-7.51,20.2-7.51,10.05,0,16.55,4,20.3,7.51a23.41,23.41,0,0,1,0,33.4" transform="translate(-41.83 -196)"/><path d="M518.89,550.66a11.07,11.07,0,0,0-3.15,7.51,11,11,0,0,0,3.15,7.21,10.38,10.38,0,0,0,7.31,3,9.79,9.79,0,0,0,7.21-3,10.73,10.73,0,0,0,3.15-7.21,11.06,11.06,0,0,0-3.15-7.51,9.8,9.8,0,0,0-7.21-3,10.39,10.39,0,0,0-7.31,3M516.25,604H500V535.33h16.24v5a17,17,0,0,1,13.91-6.5,22.56,22.56,0,0,1,16.14,6.6,25.77,25.77,0,0,1-.41,35.53,21.8,21.8,0,0,1-15.53,6.3,19.31,19.31,0,0,1-14.11-5.89Z" transform="translate(-41.83 -196)"/><path d="M498.77,380.38a6.39,6.39,0,0,1,3.65.9,6,6,0,0,1,2.65,4.08,6.55,6.55,0,0,1-.62,4.89,7.52,7.52,0,0,1-2.88,2.52ZM498.7,404c3.42-.77,8.63-2.52,11.77-7.76,2.6-4.4,2.32-9.15,1.52-12.71-1.36-6-4.24-9.54-7.27-11.52a16.72,16.72,0,0,0-12.87-1.91,16.42,16.42,0,0,0-10.55,7.12c-2.91,4.61-2.71,9.67-1.8,13.71,1.5,6.64,4.35,9.73,7.05,11.5a14.1,14.1,0,0,0,7.13,2.28l-2.36-10.47a5.2,5.2,0,0,1-2.48-1.45,8.87,8.87,0,0,1-1.63-3.37,6.32,6.32,0,0,1,.49-4.86,7.93,7.93,0,0,1,4.7-3.07l5.14,22.78ZM464.57,339.4a23.14,23.14,0,0,0,1.81,13c1.06,2.37,3.48,7.12,8.3,9a10.48,10.48,0,0,0,8.39-.29,8.86,8.86,0,0,0,4.73-4.72,13.31,13.31,0,0,0,.36-5.23l-.32-2.09c-.27-1.8-.64-2.64-.68-3.77a1.82,1.82,0,0,1,1.06-1.93,1.68,1.68,0,0,1,1.81.27,4.73,4.73,0,0,1,1.63,2.11,15.48,15.48,0,0,1,1,6l8.08.55a25.85,25.85,0,0,0-2.22-10c-1.89-4.23-4.82-7.53-8-8.71a11.2,11.2,0,0,0-8.18.42,7.57,7.57,0,0,0-4.1,4.06,10.07,10.07,0,0,0-.27,6.11l.56,3a7,7,0,0,1,.18,3.15,1.67,1.67,0,0,1-1.05,1.08,1.8,1.8,0,0,1-1.57.09,4.77,4.77,0,0,1-1.94-2.28,14.6,14.6,0,0,1-1.07-4.29,16.05,16.05,0,0,1,.29-5Zm-.11-35.6a7.18,7.18,0,0,1,1.37,5.27,6.94,6.94,0,0,1-2.82,4.79,6.82,6.82,0,0,1-5.31,1.31,7.19,7.19,0,0,1-4.75-2.77,7.86,7.86,0,0,1-1.31-5.31,7.22,7.22,0,0,1,2.82-4.79,7.33,7.33,0,0,1,5.45-1.24,7.17,7.17,0,0,1,4.55,2.74m8.49,2.27a12.4,12.4,0,0,0-2.32-10,16.12,16.12,0,0,0-10.27-6.45,17.34,17.34,0,0,0-13,3.57,15.82,15.82,0,0,0-6.58,10.45,15,15,0,0,0,2.71,12c1.83,2.48,5,5.21,9.41,5.17l-2.76,2,6.67,9L482,313.3l-6.67-9Zm-39-17.39a8.49,8.49,0,0,1-5.77-2.07,7.61,7.61,0,0,1-2.89-5.52,8.06,8.06,0,0,1,1.87-5.3,7.64,7.64,0,0,1,5.13-2.75,7.35,7.35,0,0,1,5.59,1.84,10,10,0,0,1,3.17,5.29l6-7.22a16.06,16.06,0,0,0-4.48-6,18.09,18.09,0,0,0-12.75-4.43,17.09,17.09,0,0,0-11.65,6.08,16.43,16.43,0,0,0-3.79,12.1,17.32,17.32,0,0,0,6.42,11.57,16.63,16.63,0,0,0,7.1,3.64ZM362.1,256.3l10.31,4.42,5.28-12.31c.66-1.55,2.09-4.52,5.14-5.58a7.35,7.35,0,0,1,5.37.47,9.86,9.86,0,0,1,4,2.94l4.18-9.73c-1.33-.65-1.75-.9-2-1a12.26,12.26,0,0,0-5.85-1.13,10.12,10.12,0,0,0-5.78,2.25l2-4.71-10.31-4.42Zm-28.57-27.78a6.4,6.4,0,0,1,2.34-2.95,6,6,0,0,1,4.81-.71,6.54,6.54,0,0,1,4.18,2.6,7.51,7.51,0,0,1,1.09,3.67ZM355,238.4c.72-3.43,1.29-8.9-2.17-13.93-2.92-4.2-7.36-5.92-10.93-6.66-6-1.27-10.44-.11-13.5,1.83a16.74,16.74,0,0,0-7.09,10.91,16.42,16.42,0,0,0,2.1,12.55c3,4.57,7.67,6.48,11.72,7.33,6.66,1.4,10.66.09,13.39-1.63a14.1,14.1,0,0,0,5-5.54l-10.5-2.2a5.2,5.2,0,0,1-2.36,1.65,8.85,8.85,0,0,1-3.74.08,6.31,6.31,0,0,1-4.21-2.46,7.92,7.92,0,0,1-.84-5.55l22.86,4.8Zm-44-14.42,0-9.19-6.38,0,0-10.31-11.22-.05,0,10.31-3.58,0,0,9.19,3.58,0-.11,22.17,11.22.05.11-22.17Zm-32,.83-1.35-9.09-7.77,1.15-.65-4.37c-.23-1.53-.51-3.9.48-5.39a4,4,0,0,1,2.95-1.64,7.05,7.05,0,0,1,3.62.53l-1.42-9.57a14.22,14.22,0,0,0-5.5-.25c-3.68.54-7.75,2.28-10,6.52-2,3.7-1.83,7.29-1.34,10.62l.77,5.2-3.88.57,1.34,9.09,3.89-.57,3.24,21.93,11.1-1.64L271.14,226ZM226,236.87a7.19,7.19,0,0,1,5.44.2,6.93,6.93,0,0,1,3.78,4.08,6.8,6.8,0,0,1-.27,5.46,7.2,7.2,0,0,1-4,3.76,7.89,7.89,0,0,1-5.46-.27,7.23,7.23,0,0,1-3.78-4.08,7.34,7.34,0,0,1,.37-5.58,7.18,7.18,0,0,1,3.93-3.58m4.61-7.48a12.41,12.41,0,0,0-10.22-.64,16.13,16.13,0,0,0-9.13,8,17.34,17.34,0,0,0-.3,13.45,15.81,15.81,0,0,0,8.12,9.3,15,15,0,0,0,12.31.86c2.9-1,6.42-3.28,7.65-7.53l1.17,3.23,10.56-3.8-10.63-29.5-10.56,3.8ZM160.36,281a6.41,6.41,0,0,1-.91-3.65,6,6,0,0,1,2.37-4.24,6.54,6.54,0,0,1,4.61-1.73,7.52,7.52,0,0,1,3.57,1.37Zm20.9-11c-2.28-2.66-6.27-6.46-12.36-6.77-5.1-.25-9.17,2.23-11.94,4.6-4.69,4-6.46,8.21-6.78,11.81a16.73,16.73,0,0,0,4.33,12.27,16.42,16.42,0,0,0,11.23,6c5.44.42,9.81-2.13,13-4.82,5.17-4.42,6.57-8.4,6.87-11.61a14.06,14.06,0,0,0-1.32-7.36l-8.15,7a5.22,5.22,0,0,1-.12,2.88,8.83,8.83,0,0,1-2.22,3,6.3,6.3,0,0,1-4.52,1.84,7.93,7.93,0,0,1-4.92-2.72L182,270.94Zm-40.43,61.05a23.13,23.13,0,0,0,10.53-7.87c1.57-2.07,4.56-6.49,3.85-11.6a10.49,10.49,0,0,0-4.31-7.21,8.86,8.86,0,0,0-6.42-1.87,13.28,13.28,0,0,0-4.75,2.21L138,306c-1.45,1.1-2,1.83-3,2.41a1.82,1.82,0,0,1-2.2,0,1.68,1.68,0,0,1-.64-1.71,4.74,4.74,0,0,1,1.06-2.45,15.53,15.53,0,0,1,4.78-3.77l-3.42-7.34A25.85,25.85,0,0,0,127,300c-2.79,3.69-4.27,7.85-3.75,11.24a11.21,11.21,0,0,0,4.32,7,7.58,7.58,0,0,0,5.54,1.64,10.09,10.09,0,0,0,5.48-2.71l2.34-1.93a7,7,0,0,1,2.67-1.67,1.66,1.66,0,0,1,1.46.4,1.8,1.8,0,0,1,.84,1.34,4.75,4.75,0,0,1-1.07,2.8,14.52,14.52,0,0,1-3.24,3,16,16,0,0,1-4.55,2.18Zm-31.15,17.28a7.18,7.18,0,0,1,4-3.74,6.93,6.93,0,0,1,5.56.16,6.8,6.8,0,0,1,3.71,4,7.2,7.2,0,0,1-.13,5.5,7.88,7.88,0,0,1-4,3.71,7.23,7.23,0,0,1-5.56-.16,7.34,7.34,0,0,1-3.72-4.17,7.17,7.17,0,0,1,.2-5.31m-2.11-8.53a12.42,12.42,0,0,0-7.61,6.85,16.14,16.14,0,0,0-.69,12.11,17.34,17.34,0,0,0,9.4,9.63,15.81,15.81,0,0,0,12.33.71,15,15,0,0,0,9.23-8.19c1.29-2.8,2.15-6.88,0-10.73l3.12,1.43,4.68-10.2-28.5-13.07-4.68,10.2Zm3.83,42.42a8.48,8.48,0,0,1,.88,6.06,7.62,7.62,0,0,1-3.52,5.14,8.07,8.07,0,0,1-5.55.84,7.64,7.64,0,0,1-4.84-3.24,7.35,7.35,0,0,1-1-5.8,10,10,0,0,1,3.18-5.28l-9.2-1.93a16.11,16.11,0,0,0-3.22,6.78,18.1,18.1,0,0,0,2.08,13.34A17.07,17.07,0,0,0,101,405.61a16.4,16.4,0,0,0,12.46-2.33,17.31,17.31,0,0,0,7.2-11.1,16.66,16.66,0,0,0-.12-8Z" transform="translate(-41.83 -196)"/></svg>