    <svg xmlns="http://www.w3.org/2000/svg" viewBox="0 0 695 285" version="1.1"><style>.a{fill:#FFA1F2;}.b{stroke-linecap:round;stroke-linejoin:round;stroke-width:3.9;stroke:#243EFF;}.c{fill:#FF3CEE;}.d{stroke-linecap:round;stroke-linejoin:round;stroke-width:1.9;stroke:#FFF;}.e{fill:#243EFF;}</style><g id="Page-1" style="fill-rule:evenodd;fill:none"><g id="Desktop-HD-Copy-2"><g id="Group-33"><g id="logo"><g id="computer"><g id="computer-body-container"><g id="computer-body" transform="translate(0,-5.570924377802891)"><path d="M2.5 202C0.7 216.6 11.3 218.5 18.7 230.8 28.4 246.9 31.6 265.8 48.7 276.7 78.1 295.4 135.8 277.1 162.7 270.7 179.6 266.6 215.8 259.2 229.6 240 239.4 226.5 223.7 212.1 204.7 192 178 163.8 149.8 121.6 103.8 144.5 87.7 152.5 76.4 167.3 57.1 171.9 23.8 179.8 4.3 187.4 2.5 202Z" id="shadow" style="fill:#92C8FB;opacity:0.3"></path><path d="M27.2 220.1C15.5 204 11.2 193.3 8.2 189.9 5.3 186.5 2.9 180.7 2.9 171.4 2.9 162.2 3.4 149.5 3.4 146.6 3.4 143.7 3.9 142.7 11.2 140.3 14.6 139.1 48.7 132.6 83.1 128.1 120.9 123.2 159 120.3 156 120.3 150.1 120.3 162.8 118.4 166.7 124.7 170.5 131 178.8 148.1 191.9 162.7 205 177.3 230.3 202.1 234.7 207.4 239.1 212.8 241.5 223 232.2 225.4 223 227.9 167.6 240.5 152.6 245.9 137.5 251.2 77.7 263.4 71.4 263.4 65.1 263.4 58.3 263.4 53.4 257.6 48.6 251.7 38.9 236.2 27.2 220.1Z" id="Path-10" class="a"></path><path d="M27.2 220.1C15.5 204 11.2 193.3 8.2 189.9 5.3 186.5 2.9 180.7 2.9 171.4 2.9 162.2 3.4 149.5 3.4 146.6 3.4 143.7 3.9 142.7 11.2 140.3 14.6 139.1 48.7 132.6 83.1 128.1 120.9 123.2 151.1 120.3 154 120.3 156.9 120.3 162.8 118.4 166.7 124.7 170.5 131 178.8 148.1 191.9 162.7 205 177.3 230.3 202.1 234.7 207.4 239.1 212.8 241.5 223 232.2 225.4 223 227.9 167.6 240.5 152.6 245.9 137.5 251.2 77.7 263.4 71.4 263.4 65.1 263.4 58.3 263.4 53.4 257.6 48.6 251.7 38.9 236.2 27.2 220.1Z" id="Path-10-Copy" class="b"></path><path d="M8.8 175.5C9.3 176.2 9.7 176.1 9.8 175.2L10.6 161.4C10.6 160.5 10.2 159.2 9.5 158.6L8.9 158C8.3 157.4 7.7 157.6 7.7 158.5L7.3 171.8C7.3 172.7 7.7 174 8.2 174.7L8.8 175.5Z" id="Path-15" class="c"></path><path d="M13.1 182.3C13.7 183 14.1 182.9 14.2 182L15 168.2C15 167.3 14.5 166.1 13.9 165.4L13.3 164.8C12.6 164.2 12.1 164.4 12.1 165.3L11.7 178.6C11.7 179.5 12.1 180.8 12.6 181.5L13.1 182.3Z" id="Path-15-Copy-25" class="c"></path><path d="M18.3 189.9C18.9 190.7 19.4 190.5 19.5 189.5L19.9 176.7C19.9 175.7 19.4 174.2 18.7 173.3L17.7 172C17 171.1 16.5 171.3 16.4 172.4L16.1 185.1C16 186.2 16.5 187.7 17.2 188.5L18.3 189.9Z" id="Path-15-Copy-26" class="c"></path><path d="M29.1 178.7C29.1 178.7 39.7 202.3 45.7 213.8 51.6 225.2 68.8 249.1 70 250.7 71.1 252.4 73.5 255.1 76.3 254.6 79.1 254.2 139.1 240.5 166.7 234.2 199.4 226.8 229.3 218.1 229.3 218.1" id="Path-12" class="d"></path><path d="M95.2 176.8C96.7 179.2 97.2 180.7 103.5 180.2 109.8 179.7 135.6 174.8 138.5 174.4 141.4 173.9 142.4 170.9 141.4 168.5 140.4 166.1 138 164.6 135.1 164.6 132.2 164.6 107.9 168 101.1 169.5 94.3 170.9 93.8 174.4 95.2 176.8Z" id="Path-13" class="c"></path><path d="M119 225.9C121 229.3 121.9 230 126.8 228.9 131.7 227.7 180.3 216.2 183.2 214.7 186.1 213.3 184.6 208.4 182.2 208.4 179.8 208.4 128.7 219.1 124.9 220.1 121 221.1 117.1 222.5 119 225.9Z" id="Path-14" class="c"></path><g id="Group-2" class="c"><path d="M81.5 208.2C81.8 209.2 82.9 209.8 83.9 209.4L90.4 207.3C91.4 206.9 92.1 205.8 91.8 204.8L90.8 201.2C90.6 200.2 89.5 199.5 88.4 199.7L81.1 201C80 201.2 79.4 202.1 79.8 203.1L81.5 208.2Z" id="Path-15"></path><path d="M86.8 216.5C87.1 217.5 88.3 218.1 89.3 217.7L95.8 215.5C96.8 215.2 97.4 214.1 97.1 213L96.2 209.5C95.9 208.5 94.8 207.8 93.8 208L86.4 209.2C85.4 209.4 84.8 210.4 85.1 211.4L86.8 216.5Z" id="Path-15-Copy-10"></path><path d="M93 225.8C93.4 226.8 94.6 227.3 95.6 226.9L102.6 224.2C103.6 223.8 104.2 222.7 104 221.6L103 218.1C102.7 217 101.7 216.5 100.7 216.8L92.7 219.5C91.7 219.8 91.2 220.9 91.6 221.9L93 225.8Z" id="Path-15-Copy-17"></path><path d="M98 236C98.3 237 99.4 237.5 100.4 237.2L106.9 235C108 234.7 108.6 233.6 108.3 232.5L107.4 229C107.1 227.9 106 227.2 104.9 227.4L97.6 228.7C96.5 228.9 96 229.9 96.3 230.9L98 236Z" id="Path-15-Copy-24"></path><path d="M93.7 204.8C94 205.8 95.1 206.4 96.1 206.1L103.6 203.8C104.6 203.5 105.1 202.4 104.8 201.4L103.7 198.3C103.3 197.3 102.2 196.6 101.1 196.8L93.8 198C92.7 198.2 92.1 199.2 92.4 200.2L93.7 204.8Z" id="Path-15-Copy"></path><path d="M99.6 213.1C99.9 214.1 100.9 214.7 102 214.4L109.4 212.1C110.4 211.8 111 210.7 110.6 209.7L109.5 206.5C109.1 205.5 108 204.9 106.9 205L99.6 206.3C98.5 206.5 97.9 207.5 98.2 208.5L99.6 213.1Z" id="Path-15-Copy-11"></path><path d="M106.4 221.8C106.7 222.8 107.7 223.4 108.8 223.1L116.2 220.8C117.2 220.5 117.8 219.5 117.4 218.5L116.3 215.3C115.9 214.3 114.8 213.7 113.8 213.9L106.8 215.7C105.8 216 105.2 217 105.4 218.1L106.4 221.8Z" id="Path-15-Copy-18"></path><path d="M107.4 201.9C107.9 202.9 109 203.4 110.1 203.1L118 200.8C119 200.5 119.5 199.5 119 198.5L117.3 195.2C116.9 194.2 115.6 193.6 114.6 193.9L106.7 195.5C105.7 195.7 105.2 196.7 105.6 197.7L107.4 201.9Z" id="Path-15-Copy-2"></path><path d="M113.3 210.2C113.7 211.2 114.9 211.7 115.9 211.4L122.5 209.5C123.5 209.2 124 208.1 123.5 207.2L121.8 203.8C121.4 202.9 120.1 202.3 119.1 202.5L112.5 203.8C111.5 204 111 205 111.4 206L113.3 210.2Z" id="Path-15-Copy-12"></path><path d="M120.3 217.3C120.7 218.3 121.8 218.9 122.8 218.6L130.8 216.3C131.8 216 132.3 214.9 131.9 213.9L130.8 211.3C130.4 210.3 129.2 209.7 128.2 209.9L120.3 211.6C119.3 211.8 118.7 212.8 119.1 213.8L120.3 217.3Z" id="Path-15-Copy-19"></path><path d="M121.4 197.9C121.7 199 122.8 199.6 123.9 199.4L132.7 197.3C133.8 197.1 134.2 196.1 133.8 195.1L132.5 192.3C132.1 191.3 130.8 190.7 129.8 190.9L121.9 192.6C120.9 192.8 120.3 193.8 120.6 194.8L121.4 197.9Z" id="Path-15-Copy-3"></path><path d="M125.3 207.2C125.6 208.2 126.7 208.8 127.8 208.6L136.6 206.6C137.6 206.3 138.1 205.3 137.7 204.4L136.4 201.6C135.9 200.6 134.7 200 133.7 200.2L125.8 201.8C124.8 202 124.2 203.1 124.4 204.1L125.3 207.2Z" id="Path-15-Copy-13"></path><path d="M134.1 214.5C134.4 215.5 135.5 216.1 136.6 215.9L145.4 213.9C146.5 213.6 146.9 212.6 146.5 211.7L145.2 208.9C144.8 207.9 143.5 207.3 142.5 207.5L134.6 209.1C133.6 209.3 133 210.4 133.3 211.4L134.1 214.5Z" id="Path-15-Copy-20"></path><path d="M137.7 194C138.1 195 139.2 195.6 140.3 195.4L147.7 193.8C148.7 193.6 149.3 192.6 148.9 191.6L147.8 188.4C147.4 187.4 146.3 186.8 145.2 187.1L137.8 189C136.8 189.3 136.3 190.3 136.6 191.3L137.7 194Z" id="Path-15-Copy-4"></path><path d="M141.6 203.3C142 204.3 143.1 204.9 144.2 204.7L151.5 203C152.6 202.8 153.2 201.8 152.8 200.8L151.7 197.7C151.3 196.6 150.2 196 149.1 196.3L141.7 198.3C140.7 198.5 140.2 199.6 140.5 200.6L141.6 203.3Z" id="Path-15-Copy-14"></path><path d="M148.9 210.5C149.3 211.5 150.5 212.1 151.5 211.9L158.9 210.3C160 210.1 160.5 209 160.2 208L159 205C158.7 203.9 157.6 203.3 156.5 203.6L149.1 205.6C148.1 205.8 147.5 206.9 147.9 207.9L148.9 210.5Z" id="Path-15-Copy-21"></path><path d="M152.7 191.1C153.1 192.1 154.3 192.7 155.3 192.5L162.7 190.9C163.8 190.7 164.3 189.7 164 188.6L162.8 185.5C162.5 184.5 161.4 183.9 160.3 184.2L152.9 186.1C151.9 186.4 151.3 187.4 151.7 188.4L152.7 191.1Z" id="Path-15-Copy-5"></path><path d="M156.6 200.3C157 201.3 158.2 202 159.2 201.7L166.6 200.1C167.7 199.9 168.2 198.9 167.9 197.9L166.7 194.7C166.4 193.7 165.2 193.1 164.2 193.4L156.8 195.3C155.7 195.6 155.2 196.6 155.6 197.6L156.6 200.3Z" id="Path-15-Copy-15"></path><path d="M162.1 207.5C162.5 208.6 163.6 209.2 164.7 208.9L171 207.5C172 207.2 172.6 206.2 172.3 205.2L171.5 202.6C171.2 201.5 170.1 200.9 169.1 201.2L162.7 203C161.7 203.3 161.1 204.4 161.4 205.4L162.1 207.5Z" id="Path-15-Copy-22"></path><path d="M166.8 188.3C167.2 189.3 168.4 189.9 169.4 189.7L176.8 188.1C177.9 187.9 178.4 186.9 178 185.9L177 183.6C176.6 182.6 175.4 182 174.4 182.2L167 183.4C166 183.6 165.4 184.6 165.8 185.6L166.8 188.3Z" id="Path-15-Copy-6"></path><path d="M170.3 198.5C170.7 199.5 171.8 200.1 172.8 199.8L178.9 198.2C179.9 197.9 180.4 196.9 180.1 195.9L179 192.7C178.6 191.7 177.5 191.1 176.4 191.3L170.4 192.6C169.4 192.8 168.8 193.9 169.1 194.9L170.3 198.5Z" id="Path-15-Copy-16"></path><path d="M174.6 206.3C175 207.3 176.2 207.9 177.2 207.7L184.6 206.1C185.6 205.9 186.1 204.9 185.7 203.9L184.8 201.6C184.4 200.6 183.2 200 182.1 200.2L174.8 201.5C173.7 201.6 173.2 202.6 173.6 203.6L174.6 206.3Z" id="Path-15-Copy-23"></path><path d="M180 185.7C180.4 186.7 181.6 187.3 182.6 187L187.6 185.6C188.6 185.3 189.1 184.3 188.7 183.3L187.9 181.5C187.4 180.5 186.2 179.8 185.1 180L180.2 180.8C179.2 181 178.6 182 179 183L180 185.7Z" id="Path-15-Copy-7"></path><path d="M183.4 195.4C183.8 196.4 185 197 186 196.7L191.5 195.3C192.5 195 193 194 192.5 193.1L190.8 189.7C190.4 188.8 189.1 188.2 188.1 188.5L183.1 189.9C182.1 190.2 181.6 191.2 182 192.2L183.4 195.4Z" id="Path-15-Copy-8"></path><path d="M187.8 205.2C188.2 206.2 189.4 206.7 190.4 206.5L197.8 204.5C198.8 204.3 199.3 203.2 198.9 202.3L197.1 198C196.6 197.1 195.5 196.6 194.5 196.9L187.4 199.5C186.4 199.8 185.9 201 186.4 201.9L187.8 205.2Z" id="Path-15-Copy-9"></path></g></g></g><g id="computer-head-container"><g id="computer-head" transform="translate(-2.2283697511211566,-11.141848755605782)"><path d="M3 105.6C3 76.9 6 45.3 6 45.3 6.2 42.6 8.5 40.3 11.2 40.1L155.5 31.3C156.4 31.2 157.6 31.4 158.4 31.7 158.4 31.7 175 37.5 176.9 40 178.9 42.4 178.9 52.1 178.9 52.1 178.9 52.1 180.8 146.5 178.9 151.4 176.9 156.3 126.4 164 103.6 167.9 80.7 171.8 39.9 177.2 30.2 177.2 20.5 177.2 4.9 151.4 3.9 143.6 3 135.8 3 134.4 3 105.6Z" id="Path-2-Copy-2" style="fill:#243EFF;opacity:0.1"></path><path d="M3.9 98.4C3.9 69.7 6.9 38.1 6.9 38.1 7.1 35.4 9.4 33.1 12.1 32.9L156.4 24.1C157.3 24 158.5 24.2 159.3 24.5 159.3 24.5 175.9 30.3 177.8 32.8 179.8 35.2 179.8 44.9 179.8 44.9 179.8 44.9 181.7 139.3 179.8 144.2 177.8 149.1 127.3 156.8 104.5 160.7 81.6 164.6 40.8 170 31.1 170 21.4 170 5.8 144.2 4.8 136.4 3.9 128.6 3.9 127.2 3.9 98.4Z" id="Path-2" class="a"></path><path d="M165.7 126.2C165.7 127.3 166.5 128 167.6 127.8L174.5 126.5C175.5 126.3 176.2 125.3 176.1 124.3L176.1 123.9C175.9 122.8 174.9 122.1 173.9 122.2L167.6 123C166.5 123.2 165.7 124.1 165.7 125.2L165.7 126.2Z" id="Path-15-Copy-6" class="c"></path><path d="M165.7 134.9C165.7 136 166.5 136.7 167.6 136.5L174.5 134.9C175.5 134.6 176.2 133.6 176.1 132.5L176.1 132.2C175.9 131.1 174.9 130.4 173.9 130.6L167.6 131.7C166.5 131.9 165.7 132.9 165.7 134L165.7 134.9Z" id="Path-15-Copy-27" class="c"></path><path d="M3.9 98.4C3.9 69.7 6.9 38.1 6.9 38.1 7.1 35.4 9.4 33.1 12.1 32.9L156.4 24.1C157.3 24 158.5 24.2 159.3 24.5 159.3 24.5 175.9 30.3 177.8 32.8 179.8 35.2 179.8 44.9 179.8 44.9 179.8 44.9 181.7 139.3 179.8 144.2 177.8 149.1 127.3 156.8 104.5 160.7 81.6 164.6 40.8 170 31.1 170 21.4 170 5.8 144.2 4.8 136.4 3.9 128.6 3.9 127.2 3.9 98.4Z" id="Path-2-Copy" class="b"></path><ellipse id="Oval-2" cx="170.1" cy="59.5" rx="2.9" ry="2.9" class="c"></ellipse><ellipse id="Oval-2-Copy" cx="170.5" cy="68.3" rx="1.9" ry="1.9" class="c"></ellipse><ellipse id="Oval-2-Copy-2" cx="170.5" cy="74.6" rx="1.9" ry="1.9" class="c"></ellipse><path d="M15.5 106.2C19.9 107.7 18.9 99.4 18 96.5 17 93.6 20.4 87.3 14.1 86.8 7.8 86.3 12.1 93.6 12.1 96 12.1 98.4 11.2 104.8 15.5 106.2Z" id="Path-3" class="c"></path><path d="M12.6 38.6L27.6 45.6" id="Path-4" class="d"></path><path d="M31.6 46.9C31.6 46.9 80.7 41.5 102.1 39.6 123.5 37.6 172.1 35.7 172.1 35.7" id="Path-5" class="d"></path><path d="M34 101.9C34 125.7 35.5 150.5 35.5 153.4 35.5 156.4 35 160.2 41.3 160.2 47.6 160.2 80.2 158.3 109.8 152.9 139.4 147.6 152.6 144.2 156.4 142.7 160.3 141.3 162.8 139.3 162.8 133 162.8 126.7 162.3 53.2 162.3 49.8 162.3 46.4 163.2 41.5 155 43 146.7 44.4 114.7 45.4 91.8 47.4 69 49.3 37.9 51.7 35.9 51.7 34 51.7 32.1 51.7 32.1 56.1 32.1 60.5 34 78 34 101.9Z" id="Path-6" class="c"></path><path d="M45.2 101.4C45.2 116.9 45.9 135.4 45.7 138.8 45.4 142.2 47.1 146.6 52 146.6 56.8 146.6 79.2 147.6 106.4 143.2 133.6 138.8 141.9 137.1 147.2 130.6 152.6 124 153 104.8 153 91.1 153 77.5 154.5 58.1 145.8 53.2 137 48.3 112.7 53.7 95.7 55.1 78.7 56.6 54.9 58.1 52 59.5 49.1 61 44.2 64.9 44.7 73.6 45.2 82.4 45.2 85.8 45.2 101.4Z" id="Path-7" fill="#FFF"></path><ellipse id="Oval" cx="77.7" cy="100.4" rx="6.3" ry="6.3" class="e"></ellipse><ellipse id="Oval-Copy" cx="123.4" cy="96.5" rx="5.8" ry="5.8" class="e"></ellipse><path d="M89.4 107.2C89.4 107.2 91.8 113.5 101.1 112.6 110.3 111.6 112.2 105.7 112.2 105.7" id="Path-8" class="b"></path></g></g></g><g id="text" class="e"><path d="M224 39.8L243.8 39.8 266.1 82.5 274.5 101.5 275.1 101.5C274.6 96.9 274.1 91.8 273.6 86.2 273 80.6 272.7 75.2 272.7 70.1L272.7 39.8 291.1 39.8 291.1 125.7 271.3 125.7 248.9 82.9 240.5 64.2 240 64.2C240.4 68.9 240.9 74 241.5 79.5 242.1 84.9 242.3 90.2 242.3 95.3L242.3 125.7 224 125.7 224 39.8ZM301.2 93C301.2 87.6 302 82.7 303.8 78.5 305.5 74.2 307.9 70.6 310.8 67.7 313.8 64.8 317.1 62.6 321 61.1 324.9 59.5 328.8 58.8 333 58.8 337.1 58.8 341 59.5 344.8 61.1 348.7 62.6 352 64.8 355 67.7 357.9 70.6 360.2 74.2 362 78.5 363.7 82.7 364.6 87.6 364.6 93 364.6 98.5 363.7 103.3 362 107.6 360.2 111.8 357.9 115.4 355 118.3 352 121.2 348.7 123.4 344.8 125 341 126.5 337.1 127.3 333 127.3 328.8 127.3 324.9 126.5 321 125 317.1 123.4 313.8 121.2 310.8 118.3 307.9 115.4 305.5 111.8 303.8 107.6 302 103.3 301.2 98.5 301.2 93ZM321 93C321 98.7 322 103.3 324 106.6 325.9 109.9 328.9 111.6 333 111.6 336.9 111.6 339.9 109.9 341.9 106.6 343.9 103.3 344.9 98.7 344.9 93 344.9 87.3 343.9 82.8 341.9 79.5 339.9 76.1 336.9 74.4 333 74.4 328.9 74.4 325.9 76.1 324 79.5 322 82.8 321 87.3 321 93ZM373.1 60.4L388.9 60.4 390.2 71.8 390.7 71.8C393.1 67.3 395.9 64 399.3 61.9 402.6 59.8 405.9 58.8 409.2 58.8 411.1 58.8 412.6 58.9 413.8 59.1 415 59.3 416 59.6 417 60.1L413.8 76.8C412.6 76.5 411.5 76.2 410.4 76 409.4 75.9 408.2 75.8 406.8 75.8 404.3 75.8 401.7 76.6 399.1 78.4 396.4 80.2 394.2 83.3 392.4 87.8L392.4 125.7 373.1 125.7 373.1 60.4ZM415.9 93C415.9 87.7 416.7 82.9 418.2 78.7 419.7 74.4 421.7 70.9 424.2 67.9 426.7 65 429.6 62.7 432.9 61.1 436.2 59.6 439.6 58.8 443 58.8 446.6 58.8 449.7 59.4 452 60.6 454.4 61.8 456.7 63.5 459 65.6L458.2 55.6 458.2 33.3 477.5 33.3 477.5 125.7 461.8 125.7 460.4 119.2 459.9 119.2C457.6 121.5 455 123.4 451.9 125 448.8 126.5 445.7 127.3 442.6 127.3 438.5 127.3 434.9 126.5 431.6 124.9 428.3 123.3 425.5 121.1 423.2 118.1 420.9 115.2 419.1 111.6 417.8 107.4 416.5 103.2 415.9 98.4 415.9 93ZM435.7 92.8C435.7 99.3 436.8 104 438.8 107 440.9 110 443.8 111.5 447.6 111.5 449.7 111.5 451.6 111 453.3 110.2 455 109.3 456.6 107.7 458.2 105.5L458.2 78.8C456.5 77.2 454.7 76.1 452.8 75.5 451 74.9 449.2 74.6 447.4 74.6 444.4 74.6 441.7 76.1 439.3 79 436.9 81.9 435.7 86.5 435.7 92.8ZM499.4 50.7C496.2 50.7 493.5 49.8 491.4 47.9 489.3 46 488.3 43.6 488.3 40.6 488.3 37.6 489.3 35.2 491.4 33.3 493.5 31.5 496.2 30.6 499.4 30.6 502.7 30.6 505.4 31.5 507.5 33.3 509.6 35.2 510.6 37.6 510.6 40.6 510.6 43.6 509.6 46 507.5 47.9 505.4 49.8 502.7 50.7 499.4 50.7ZM489.8 60.4L509.1 60.4 509.1 125.7 489.8 125.7 489.8 60.4ZM517.5 93C517.5 87.6 518.4 82.7 520.3 78.5 522.1 74.2 524.6 70.6 527.7 67.7 530.8 64.8 534.4 62.6 538.5 61.1 542.6 59.5 546.9 58.8 551.4 58.8 555.4 58.8 559.1 59.5 562.3 60.8 565.5 62.2 568.3 64 570.5 66.3L561.6 78.3C558.6 75.7 555.6 74.4 552.6 74.4 547.9 74.4 544.1 76.1 541.4 79.5 538.7 82.8 537.3 87.3 537.3 93 537.3 98.7 538.7 103.3 541.5 106.6 544.2 109.9 547.7 111.6 551.9 111.6 554.3 111.6 556.4 111.1 558.4 110.2 560.3 109.2 562 108.1 563.6 106.9L571.4 119.1C568.2 121.9 564.7 124 560.9 125.3 557 126.6 553.3 127.3 549.7 127.3 545.1 127.3 540.9 126.5 537 125 533.1 123.4 529.7 121.2 526.8 118.3 523.9 115.4 521.7 111.8 520 107.6 518.3 103.3 517.5 98.5 517.5 93ZM577.4 115.2C577.4 111.6 578.5 108.7 580.7 106.4 583 104.1 585.7 102.9 589.1 102.9 592.4 102.9 595.2 104.1 597.4 106.4 599.6 108.7 600.8 111.6 600.8 115.2 600.8 118.6 599.6 121.5 597.4 123.8 595.2 126.1 592.4 127.3 589.1 127.3 585.7 127.3 583 126.1 580.7 123.8 578.5 121.5 577.4 118.6 577.4 115.2ZM617.4 60.4L636.7 60.4 636.7 125.3C636.7 128.9 636.3 132.3 635.6 135.5 634.8 138.6 633.6 141.4 631.8 143.8 630 146.1 627.6 148 624.6 149.4 621.6 150.8 617.9 151.5 613.5 151.5 610.7 151.5 608.5 151.4 606.7 151 604.9 150.6 603.3 150.2 602 149.7L605.4 135.5C606.3 135.7 607.1 135.9 607.9 136.1 608.7 136.3 609.6 136.4 610.6 136.4 613.1 136.4 614.9 135.5 615.9 133.9 616.9 132.2 617.4 129.5 617.4 125.8L617.4 60.4ZM627.1 50.7C623.9 50.7 621.2 49.8 619.1 47.9 617 46 616 43.6 616 40.6 616 37.6 617 35.2 619.1 33.3 621.2 31.5 623.9 30.6 627.1 30.6 630.4 30.6 633 31.5 635.1 33.3 637.2 35.2 638.3 37.6 638.3 40.6 638.3 43.6 637.2 46 635.1 47.9 633 49.8 630.4 50.7 627.1 50.7ZM651.9 106.1C654.9 108.4 657.7 110.1 660.4 111.2 663.2 112.4 665.9 112.9 668.7 112.9 671.6 112.9 673.7 112.4 675 111.5 676.3 110.5 677 109.1 677 107.4 677 106.3 676.6 105.4 675.9 104.6 675.1 103.7 674.1 103 672.9 102.2 671.6 101.5 670.2 100.9 668.6 100.3 667 99.8 665.4 99.1 663.7 98.4 661.7 97.6 659.7 96.7 657.7 95.7 655.7 94.6 653.8 93.3 652.2 91.8 650.5 90.2 649.1 88.4 648.1 86.4 647 84.3 646.5 81.9 646.5 79.2 646.5 76.2 647.1 73.4 648.3 70.9 649.5 68.3 651.2 66.2 653.3 64.4 655.5 62.7 658.2 61.3 661.2 60.3 664.3 59.3 667.7 58.8 671.5 58.8 676.5 58.8 680.9 59.6 684.6 61.3 688.4 63.1 691.7 65 694.5 67.1L685.8 78.7C683.4 76.9 681.1 75.5 678.8 74.6 676.6 73.6 674.3 73.1 672 73.1 667.1 73.1 664.6 74.8 664.6 78.3 664.6 79.3 665 80.2 665.7 81 666.4 81.7 667.3 82.4 668.5 83 669.7 83.6 671.1 84.2 672.6 84.8 674.1 85.4 675.7 86 677.4 86.6 679.5 87.4 681.6 88.3 683.6 89.3 685.7 90.3 687.6 91.5 689.3 93 691 94.5 692.4 96.3 693.4 98.5 694.5 100.6 695 103.2 695 106.2 695 109.2 694.4 112 693.3 114.5 692.2 117.1 690.4 119.3 688.2 121.2 685.9 123 683.1 124.5 679.8 125.6 676.4 126.7 672.6 127.3 668.2 127.3 663.9 127.3 659.5 126.4 655 124.8 650.5 123.1 646.6 120.9 643.2 118.2L651.9 106.1Z" id="nordicjs"></path><path d="M267.1 158.6L261.4 172.3C261.2 172.8 261 173.2 261 173.6 261 174.3 261.6 174.7 262.9 174.7 264.4 174.7 264.9 174.1 265.5 172.7L271.2 158.4C271.5 157.5 271.8 156.9 271.8 156.4 271.8 155.8 271.5 155.4 271.2 155.2 270.8 155 270.3 154.9 269.9 154.9L260.2 154.9C259.5 154.9 259 155 258.6 155.3 258.2 155.5 258 156 258 156.8 258 157.6 258.2 158.1 258.6 158.3 259 158.6 259.5 158.6 260.2 158.6L267.1 158.6ZM279.6 166.8C280.3 166.8 280.8 166.8 281.2 166.5 281.6 166.2 281.9 165.7 281.9 164.9 281.9 164.1 281.6 163.7 281.2 163.4 280.8 163.1 280.3 163.1 279.6 163.1L275.5 163.1C274.8 163.1 274.3 163.1 273.9 163.4 273.5 163.7 273.3 164.1 273.3 164.9 273.3 165.7 273.5 166.2 273.9 166.5 274.3 166.8 274.8 166.8 275.5 166.8L279.6 166.8ZM285.8 160C285.8 156.9 288.2 154.5 292.4 154.5 296.5 154.5 298.7 156.8 298.7 159.8 298.7 163.2 295.8 164.2 295.8 164.2 295.8 164.2 299.4 165.4 299.4 169.1 299.4 172.1 297.1 175 292.1 175 287.2 175 285.1 172.2 285.1 169.3 285.1 165.6 288.7 164.3 288.7 164.3 288.7 164.3 285.8 163.3 285.8 160ZM289.1 168.9C289.1 170.5 290.2 171.7 292.3 171.7 294.3 171.7 295.4 170.5 295.4 168.9 295.4 167.1 294.1 165.9 292.3 165.9 290.4 165.9 289.1 167.1 289.1 168.9ZM289.7 160.1C289.7 161.6 290.7 162.6 292.3 162.6 293.8 162.6 294.8 161.6 294.8 160.1 294.8 158.7 293.9 157.7 292.2 157.7 290.6 157.7 289.7 158.7 289.7 160.1ZM315.4 159.9C315.4 158.8 316.3 158 317.7 158 319.4 158 320.4 159.2 321.4 159.2 322.3 159.2 323.1 158.1 323.1 157.3 323.1 155.7 320.4 154.5 317.8 154.5 314.1 154.5 311.3 156.7 311.3 160.1 311.3 163.8 314.9 165.2 316.9 166.3 318.2 166.9 319.4 167.7 319.4 169.1 319.4 170.5 318.2 171.4 316.7 171.4 314.6 171.4 313.7 169.9 312.6 169.9 311.6 169.9 310.9 171.1 310.9 171.9 310.9 172.8 311.7 173.4 312.5 173.9 313.8 174.5 315.3 174.9 316.8 174.9 320.3 174.9 323.5 172.8 323.5 169 323.5 166.5 322.1 164.9 320.4 163.8 318.3 162.5 315.4 161.8 315.4 159.9ZM331.8 158.5L336.7 158.5C337.3 158.5 337.8 158.5 338.2 158.2 338.6 157.9 338.8 157.5 338.8 156.7 338.8 155.9 338.6 155.5 338.2 155.2 337.8 155 337.3 154.9 336.7 154.9L329.8 154.9C328.4 154.9 327.9 155.4 327.9 156.9L327.9 172.6C327.9 174 328.3 174.5 329.8 174.5L337.4 174.5C338 174.5 338.5 174.5 338.9 174.3 339.3 174 339.5 173.5 339.5 172.8 339.5 172 339.3 171.6 338.9 171.3 338.5 171 338 171 337.4 171L331.8 171 331.8 165.9 335.5 165.9C336.2 165.9 336.7 165.9 337.1 165.6 337.5 165.4 337.7 164.9 337.7 164.1 337.7 163.4 337.5 163 337.1 162.7 336.7 162.4 336.2 162.4 335.5 162.4L331.8 162.4 331.8 158.5ZM357.2 161.2C357.2 165.8 353.4 167.8 349.1 167.8 348.3 167.8 347.9 167.7 347.9 167.7L347.9 172.5C347.9 173.2 347.9 173.7 347.6 174.1 347.3 174.5 346.7 174.7 345.9 174.7 345 174.7 344.5 174.5 344.2 174.1 343.9 173.7 343.9 173.2 343.9 172.5L343.9 157.4C343.9 156.5 343.9 155.6 345.3 155.1 346 154.9 347.3 154.7 348.8 154.7 350.8 154.7 352.9 155 354.6 156.1 356.2 157.1 357.2 158.8 357.2 161.2ZM347.9 158.2L347.9 164.4C347.9 164.4 348.3 164.5 348.9 164.5 351 164.5 353.1 163.8 353.1 161.3 353.1 159.1 351.5 158.1 349.2 158.1 348.5 158.1 347.9 158.2 347.9 158.2ZM369.3 158.6L373.3 158.6C373.9 158.6 374.4 158.6 374.8 158.3 375.2 158 375.4 157.6 375.4 156.7 375.4 156 375.2 155.5 374.8 155.3 374.4 155 373.9 154.9 373.3 154.9L361.2 154.9C360.6 154.9 360.1 155 359.7 155.3 359.3 155.5 359.1 156 359.1 156.7 359.1 157.6 359.3 158 359.7 158.3 360.1 158.6 360.6 158.6 361.2 158.6L365.2 158.6 365.2 172.5C365.2 173.2 365.2 173.7 365.5 174.1 365.8 174.5 366.4 174.7 367.2 174.7 368.1 174.7 368.7 174.5 369 174.1 369.3 173.7 369.3 173.2 369.3 172.5L369.3 158.6ZM382.9 158.5L387.7 158.5C388.4 158.5 388.9 158.5 389.3 158.2 389.7 157.9 389.9 157.5 389.9 156.7 389.9 155.9 389.7 155.5 389.3 155.2 388.9 155 388.4 154.9 387.7 154.9L380.8 154.9C379.4 154.9 378.9 155.4 378.9 156.9L378.9 172.6C378.9 174 379.4 174.5 380.8 174.5L388.4 174.5C389.1 174.5 389.6 174.5 390 174.3 390.4 174 390.6 173.5 390.6 172.8 390.6 172 390.4 171.6 390 171.3 389.6 171 389.1 171 388.4 171L382.9 171 382.9 165.9 386.6 165.9C387.3 165.9 387.7 165.9 388.1 165.6 388.5 165.4 388.7 164.9 388.7 164.1 388.7 163.4 388.5 163 388.1 162.7 387.7 162.4 387.3 162.4 386.6 162.4L382.9 162.4 382.9 158.5ZM405.9 167.4L400.8 157C400.1 155.6 399.6 154.7 397.9 154.7 397.1 154.7 396.6 154.9 396.3 155.2 395.8 155.7 395.7 156.2 395.6 157.1L394.2 172.2C394.1 172.7 394.1 173 394.1 173.2 394.1 174.2 394.7 174.7 396 174.7 397.5 174.7 398 174.1 398.1 173.1L399 161.4 403.8 171.6C404.3 172.7 404.7 173.3 405.8 173.3 407 173.3 407.4 172.6 407.8 171.6L412.7 161.4 413.5 173.1C413.6 174.2 414.2 174.7 415.6 174.7 417.1 174.7 417.6 174.2 417.6 173.3 417.6 173.1 417.6 172.5 417.5 172.2L416.2 157.2C416.1 156.1 415.9 155.7 415.6 155.3 415.2 154.8 414.6 154.7 414 154.7 412.5 154.7 411.9 155.6 411.2 157L405.9 167.4ZM436.2 169C436.2 171.5 434.7 173.1 432.9 173.9 431.7 174.4 430 174.7 427.6 174.7 426.3 174.7 425 174.6 424.2 174.4 422.7 174 422.6 173.1 422.6 172L422.6 157.3C422.6 155.9 423.1 155.3 424.6 155 425.4 154.8 426.8 154.7 427.7 154.7 432.2 154.7 435 156.1 435 159.5 435 163 431.9 163.9 431.9 163.9 431.9 163.9 436.2 164.6 436.2 169ZM426.5 158.1L426.5 162.6 427.2 162.6C427.9 162.6 429.1 162.6 430 161.9 430.5 161.5 430.9 160.9 430.9 160.1 430.9 158.5 429.3 158 427.8 158 427.2 158 426.5 158.1 426.5 158.1ZM426.5 165.6L426.5 171.5C426.5 171.5 426.9 171.5 427.8 171.5 430.2 171.5 432 170.8 432 168.7 432 167.6 431.5 166.8 430.5 166.2 429.4 165.6 428.2 165.6 427.1 165.6L426.5 165.6ZM444.6 158.5L449.5 158.5C450.1 158.5 450.6 158.5 451 158.2 451.4 157.9 451.6 157.5 451.6 156.7 451.6 155.9 451.4 155.5 451 155.2 450.6 155 450.1 154.9 449.5 154.9L442.6 154.9C441.2 154.9 440.7 155.4 440.7 156.9L440.7 172.6C440.7 174 441.1 174.5 442.6 174.5L450.2 174.5C450.8 174.5 451.3 174.5 451.7 174.3 452.1 174 452.4 173.5 452.4 172.8 452.4 172 452.1 171.6 451.7 171.3 451.3 171 450.8 171 450.2 171L444.6 171 444.6 165.9 448.4 165.9C449 165.9 449.5 165.9 449.9 165.6 450.3 165.4 450.5 164.9 450.5 164.1 450.5 163.4 450.3 163 449.9 162.7 449.5 162.4 449 162.4 448.4 162.4L444.6 162.4 444.6 158.5ZM460.6 166.9L460.6 172.5C460.6 173.2 460.6 173.7 460.3 174.1 460 174.5 459.5 174.7 458.7 174.7 457.8 174.7 457.3 174.5 457 174.1 456.7 173.7 456.7 173.2 456.7 172.5L456.7 157.4C456.7 156.4 456.7 155.5 458.3 155.1 459 154.9 460.2 154.7 461.8 154.7 463.4 154.7 465.2 154.9 466.7 155.6 468.6 156.6 469.7 158.3 469.7 160.6 469.7 163.1 468.5 165 466.3 166.1L471.1 172.6C471.8 173.5 471.5 174.7 469.4 174.7 467.8 174.7 467.3 174.1 466.6 173L463.8 168.9C463.1 167.8 462.7 166.9 462.7 166.9 462.7 166.9 462.3 167 461.6 167 461 167 460.6 166.9 460.6 166.9ZM460.6 158.3L460.6 163.8C460.6 163.8 461 163.8 461.5 163.8 464.1 163.8 465.6 162.9 465.6 160.9 465.6 158.8 464 158.1 462.1 158.1 461.3 158.1 460.6 158.3 460.6 158.3ZM482.5 173C482.5 174.4 483.6 174.5 484.5 174.5L494 174.5C494.6 174.5 495 174.5 495.4 174.2 495.8 174 496 173.5 496 172.7 496 171.9 495.8 171.5 495.4 171.2 495 170.9 494.6 170.9 494 170.9L487.5 170.9C490.7 166.3 495.4 164.7 495.4 160 495.4 156.2 492.3 154.5 489.1 154.5 487.4 154.5 485.9 155 484.7 155.6 483.5 156.3 482.5 157.3 482.5 158.3 482.5 159.2 483.3 160.1 484.4 160.1 485 160.1 485.4 159.9 485.9 159.4 486.7 158.8 487.4 158.2 488.6 158.2 490.2 158.2 491.2 159.1 491.2 160.5 491.2 162.7 489.1 163.7 485.7 167.5 484 169.4 482.5 171.5 482.5 173ZM498.9 164.8C498.9 158.6 501.3 154.5 506.5 154.5 511.7 154.5 513.9 158.7 513.9 164.6 513.9 170.8 511.5 175 506.3 175 501.1 175 498.9 170.7 498.9 164.8ZM502.8 164.7C502.8 168.1 503.4 171.4 506.4 171.4 509.4 171.4 510 168.1 510 164.7 510 161.3 509.4 158 506.4 158 503.4 158 502.8 161.4 502.8 164.7ZM524.7 156.7C524.7 156.1 524.7 155.6 524.3 155.1 524 154.8 523.7 154.7 523.2 154.7 522.6 154.7 522.2 154.8 521.5 155.1L517.8 156.8C517.1 157.2 516.4 157.5 516.4 158.5 516.4 159.4 517 160.6 518.1 160.6 518.4 160.6 518.7 160.5 519 160.4L520.6 159.7 520.6 172.5C520.6 173.2 520.6 173.7 520.9 174.1 521.2 174.5 521.8 174.7 522.7 174.7 523.5 174.7 524.1 174.5 524.4 174.1 524.7 173.7 524.7 173.2 524.7 172.5L524.7 156.7ZM537.4 158.6L531.6 172.3C531.4 172.8 531.3 173.2 531.3 173.6 531.3 174.3 531.8 174.7 533.1 174.7 534.6 174.7 535.2 174.1 535.8 172.7L541.4 158.4C541.8 157.5 542 156.9 542 156.4 542 155.8 541.8 155.4 541.5 155.2 541.1 155 540.5 154.9 540.1 154.9L530.4 154.9C529.8 154.9 529.2 155 528.8 155.3 528.4 155.5 528.2 156 528.2 156.8 528.2 157.6 528.4 158.1 528.8 158.3 529.2 158.6 529.8 158.6 530.4 158.6L537.4 158.6Z" id="date"></path><path d="M304.9 199.9C304.9 198.8 305.8 198 307.2 198 308.9 198 309.9 199.2 310.9 199.2 311.8 199.2 312.6 198.1 312.6 197.3 312.6 195.7 309.9 194.5 307.2 194.5 303.6 194.5 300.8 196.7 300.8 200.1 300.8 203.8 304.4 205.2 306.4 206.3 307.6 206.9 308.8 207.7 308.8 209.1 308.8 210.5 307.7 211.4 306.1 211.4 304.1 211.4 303.2 209.9 302.1 209.9 301.1 209.9 300.4 211 300.4 211.9 300.4 212.8 301.1 213.4 302 213.9 303.3 214.5 304.8 214.9 306.3 214.9 309.8 214.9 312.9 212.7 312.9 209 312.9 206.4 311.5 204.9 309.9 203.8 307.7 202.5 304.9 201.7 304.9 199.9ZM325.8 198.6L329.8 198.6C330.4 198.6 330.9 198.6 331.3 198.3 331.7 198 331.9 197.6 331.9 196.7 331.9 195.9 331.7 195.5 331.3 195.3 330.9 194.9 330.4 194.9 329.8 194.9L317.7 194.9C317.1 194.9 316.6 194.9 316.2 195.3 315.8 195.5 315.6 195.9 315.6 196.7 315.6 197.6 315.8 198 316.2 198.3 316.6 198.6 317.1 198.6 317.7 198.6L321.7 198.6 321.7 212.4C321.7 213.2 321.7 213.7 322 214.1 322.3 214.5 322.9 214.7 323.8 214.7 324.6 214.7 325.2 214.5 325.5 214.1 325.8 213.7 325.8 213.2 325.8 212.4L325.8 198.6ZM333 204.7C333 198.8 337.1 194.5 343.4 194.5 349.7 194.5 353.7 198.8 353.7 204.7 353.7 210.6 349.6 215 343.3 215 337 215 333 210.6 333 204.7ZM337.2 204.7C337.2 209 339.6 211.5 343.4 211.5 347.1 211.5 349.5 209 349.5 204.7 349.5 200.4 347.1 197.9 343.3 197.9 339.5 197.9 337.2 200.4 337.2 204.7ZM361.4 204.5C361.4 200 364.2 198.2 367.1 198.2 368.1 198.2 368.9 198.4 369.8 198.7 370.8 199.2 371.5 199.6 372.1 199.6 373.2 199.6 373.7 198.3 373.7 197.5 373.7 196.9 373.3 196.3 372.4 195.8 371.1 195 369.2 194.5 367.2 194.5 362 194.5 357.2 197.8 357.2 204.6 357.2 211.3 361.8 214.9 367.2 214.9 369 214.9 371 214.5 372.4 213.6 373.2 213.1 373.7 212.6 373.7 211.8 373.7 211 373.1 209.8 372.1 209.8 371.5 209.8 370.9 210.3 369.9 210.7 369 211 368.2 211.2 367.2 211.2 364.3 211.2 361.4 209.1 361.4 204.5ZM382.3 196.9C382.3 196.3 382.3 195.7 382 195.3 381.7 194.9 381.2 194.7 380.3 194.7 379.4 194.7 378.8 194.9 378.5 195.3 378.2 195.7 378.2 196.3 378.2 196.9L378.2 212.4C378.2 213.2 378.2 213.7 378.5 214.1 378.8 214.5 379.4 214.7 380.3 214.7 381.2 214.7 381.7 214.5 382 214.1 382.3 213.7 382.3 213.2 382.3 212.4L382.3 204.8 389.1 212.9C390.2 214.1 390.7 214.7 392.3 214.7 393.8 214.7 394.4 214.2 394.4 213.6 394.4 213.1 394 212.6 393.6 212.1L386.4 204 392.6 197.2C393 196.7 393.4 196.3 393.4 195.8 393.4 195.1 392.9 194.7 391.6 194.7 389.9 194.7 389.3 195.3 388.3 196.5L382.3 203.4 382.3 196.9ZM415.3 196.9C415.3 196.3 415.3 195.7 415 195.3 414.7 194.9 414.1 194.7 413.2 194.7 412.2 194.7 411.8 195 411.5 195.3 411.2 195.7 411.2 196.3 411.2 196.9L411.2 202.3 402.3 202.3 402.3 196.9C402.3 196.3 402.3 195.7 402 195.3 401.7 194.9 401.2 194.7 400.3 194.7 399.4 194.7 398.8 194.9 398.5 195.3 398.2 195.7 398.2 196.3 398.2 196.9L398.2 212.4C398.2 213.2 398.2 213.7 398.5 214.1 398.8 214.5 399.4 214.7 400.3 214.7 401.2 214.7 401.7 214.5 402 214.1 402.3 213.7 402.3 213.2 402.3 212.4L402.3 206 411.2 206 411.2 212.4C411.2 213.2 411.2 213.7 411.5 214.1 411.8 214.4 412.2 214.7 413.2 214.7 414.1 214.7 414.7 214.5 415 214.1 415.3 213.7 415.3 213.2 415.3 212.4L415.3 196.9ZM420.1 204.7C420.1 198.8 424.1 194.5 430.5 194.5 436.7 194.5 440.7 198.8 440.7 204.7 440.7 210.6 436.6 215 430.3 215 424 215 420.1 210.6 420.1 204.7ZM424.2 204.7C424.2 209 426.6 211.5 430.4 211.5 434.2 211.5 436.5 209 436.5 204.7 436.5 200.4 434.1 197.9 430.4 197.9 426.6 197.9 424.2 200.4 424.2 204.7ZM449.5 210.9L449.5 196.9C449.5 196.3 449.5 195.7 449.2 195.3 448.9 194.9 448.3 194.7 447.5 194.7 446.6 194.7 446 194.9 445.7 195.3 445.4 195.7 445.4 196.3 445.4 196.9L445.4 212.6C445.4 214 445.9 214.5 447.4 214.5L455.1 214.5C455.8 214.5 456.2 214.5 456.6 214.2 457 214 457.2 213.5 457.2 212.7 457.2 211.9 457 211.5 456.6 211.2 456.2 210.9 455.8 210.9 455.1 210.9L449.5 210.9ZM472.5 207.4L467.4 196.9C466.7 195.6 466.2 194.7 464.5 194.7 463.7 194.7 463.2 194.9 462.9 195.2 462.4 195.6 462.3 196.2 462.2 197.1L460.8 212.1C460.7 212.7 460.7 213 460.7 213.2 460.7 214.2 461.3 214.7 462.6 214.7 464.1 214.7 464.6 214.1 464.7 213L465.6 201.4 470.4 211.6C470.9 212.7 471.3 213.3 472.4 213.3 473.6 213.3 474 212.6 474.4 211.6L479.3 201.4 480.1 213C480.2 214.1 480.8 214.7 482.2 214.7 483.7 214.7 484.2 214.2 484.2 213.3 484.2 213 484.2 212.5 484.1 212.2L482.8 197.2C482.7 196.1 482.5 195.7 482.2 195.3 481.8 194.8 481.2 194.7 480.6 194.7 479 194.7 478.5 195.6 477.8 196.9L472.5 207.4Z" id="location"></path></g></g></g></g></g></svg>
