<svg xmlns="http://www.w3.org/2000/svg" viewBox="0 0 1000 1000"><defs><style>.cls-1{fill:#fff;}</style></defs><title>tomasz-ducin-logo-kontra</title><g id="Layer_2" data-name="Layer 2"><g id="Layer_1-2" data-name="Layer 1"><rect width="1000" height="1000"/><path class="cls-1" d="M289.9,565.83H246.31V538.19H364.94v27.64H321.36V691H289.9Z"/><path class="cls-1" d="M350.34,643.34c0-29.2,23.14-50.1,52.8-50.1s52.58,20.9,52.58,50.1c0,29-22.92,49.66-52.58,49.66S350.34,672.33,350.34,643.34Zm74.37,0c0-14.38-8.09-24-21.57-24s-21.79,9.66-21.79,24c0,14.16,8.31,24,21.79,24S424.71,657.5,424.71,643.34Z"/><path class="cls-1" d="M476.16,595.26h30.33l-.67,14.83c6.74-11.68,15.73-16.85,27.19-16.85,12.35,0,21.12,5.17,27,16.4,7.86-9.88,18.42-16.4,32.58-16.4,24,0,38,16,38,42.24V691H600.41v-52.8c0-11.24-3.59-17.3-15-17.3-11.69,0-16.85,5.84-16.85,18.87V691H538.4v-52.8c0-11.24-3.37-17.3-14.83-17.3-11.68,0-17.08,5.84-17.08,18.87V691H476.16Z"/><path class="cls-1" d="M694.1,618.18c-11.46,0-17.52,4.94-21.79,8.76l-16.85-18c9-8.76,19.09-15.73,41.56-15.73,24.49,0,43.14,13.26,43.14,43.36V691H710.05l.68-13.26c-7.19,11-15.5,15.28-28.31,15.28-17.53,0-33.71-7.86-33.71-30.11,0-20.44,15.51-28.76,39.1-28.76h22.24C709.61,623.12,704.21,618.18,694.1,618.18Zm-4.72,33.93c-7.64,0-11,3.37-11,8.76s4.5,8.54,13,8.54c12.35,0,18.64-5.39,18.64-13.48v-3.82Z"/><path class="cls-1" d="M756.34,674.8l17.75-15.73c6.51,6.29,14.83,10.11,23.81,10.11,9.89,0,13-1.79,13-5.84,0-5.17-6.07-5.17-21.57-9.21-13-3.37-27.64-10.56-27.64-30.56,0-21.57,16.63-30.33,37.07-30.33,15.73,0,27,5.17,34.83,13.26l-16.18,17.3C813,620,806.22,616.61,799,616.61c-7,0-10.34,1.8-10.34,5.61,0,5.4,6.07,6.07,19.1,9,13.93,3.15,31.46,9.66,31.46,29.89,0,17.52-9.22,31.9-39.32,31.9C777.68,693,764.65,684.69,756.34,674.8Z"/><path class="cls-1" d="M850,688.51l41.57-68.76H855.2V595.26h82.68v2.47l-42.46,68.76h38.87V691H850Z"/><path class="cls-1" d="M404.93,763.86h47c47,0,80.44,31.23,80.44,76.39s-33.25,76.4-80.44,76.4h-47ZM450.32,889c33.93,0,49.43-20.22,49.43-48.76s-15.5-48.75-49.43-48.75H436.39V889Z"/><path class="cls-1" d="M554.12,876.2V820.93h30.34v53.25c0,10.79,5.16,17.08,15.95,17.08,12.13,0,18.87-7,18.87-19.1V820.93h30.33v95.72H619.28l.68-15.73c-5.85,11.46-16.86,17.75-30.11,17.75C569,918.67,554.12,903.39,554.12,876.2Z"/><path class="cls-1" d="M670.06,868.56c0-29,22.47-49.65,52.35-49.65,19.1,0,30.56,7,40.22,19.1l-21.57,17.52a22.56,22.56,0,0,0-18.65-10.11c-13.7,0-21.34,9.66-21.34,23.14,0,13.93,7.64,23.82,21.34,23.82,9.66,0,14.83-4.49,19.32-9l20.45,18c-9.44,10.56-20.67,17.3-39.77,17.3C692.53,918.67,670.06,898,670.06,868.56Z"/><path class="cls-1" d="M777.68,785.88c0-11,9-18.87,19.32-18.87s19.1,7.86,19.1,18.87a19.21,19.21,0,0,1-38.42,0Zm4,35h30.34v95.72H781.72Z"/><path class="cls-1" d="M837,820.93h30.34l-.68,15.73c5.84-11.46,17.08-17.75,30.34-17.75,20.89,0,36,15.28,36,42.46v55.28H902.6V863.4c0-10.79-5.17-16.86-16-16.86-12.13,0-19.32,6.75-19.32,18.88v51.23H837Z"/></g></g></svg>